<?xml version='1.0' encoding='UTF-8'?>
<svg preserveAspectRatio="xMidYMid meet" width="100%" height="100%" version="1.1" viewBox="0 0 39 39" xmlns="http://www.w3.org/2000/svg"><path d="M1,1H2V2H1zM2,1H3V2H2zM3,1H4V2H3zM4,1H5V2H4zM5,1H6V2H5zM6,1H7V2H6zM7,1H8V2H7zM9,1H10V2H9zM10,1H11V2H10zM11,1H12V2H11zM14,1H15V2H14zM15,1H16V2H15zM17,1H18V2H17zM19,1H20V2H19zM20,1H21V2H20zM22,1H23V2H22zM24,1H25V2H24zM29,1H30V2H29zM31,1H32V2H31zM32,1H33V2H32zM33,1H34V2H33zM34,1H35V2H34zM35,1H36V2H35zM36,1H37V2H36zM37,1H38V2H37zM1,2H2V3H1zM7,2H8V3H7zM9,2H10V3H9zM11,2H12V3H11zM12,2H13V3H12zM13,2H14V3H13zM17,2H18V3H17zM18,2H19V3H18zM19,2H20V3H19zM21,2H22V3H21zM22,2H23V3H22zM24,2H25V3H24zM25,2H26V3H25zM31,2H32V3H31zM37,2H38V3H37zM1,3H2V4H1zM3,3H4V4H3zM4,3H5V4H4zM5,3H6V4H5zM7,3H8V4H7zM10,3H11V4H10zM12,3H13V4H12zM14,3H15V4H14zM17,3H18V4H17zM19,3H20V4H19zM23,3H24V4H23zM25,3H26V4H25zM26,3H27V4H26zM28,3H29V4H28zM31,3H32V4H31zM33,3H34V4H33zM34,3H35V4H34zM35,3H36V4H35zM37,3H38V4H37zM1,4H2V5H1zM3,4H4V5H3zM4,4H5V5H4zM5,4H6V5H5zM7,4H8V5H7zM9,4H10V5H9zM10,4H11V5H10zM12,4H13V5H12zM16,4H17V5H16zM17,4H18V5H17zM18,4H19V5H18zM23,4H24V5H23zM26,4H27V5H26zM27,4H28V5H27zM28,4H29V5H28zM29,4H30V5H29zM31,4H32V5H31zM33,4H34V5H33zM34,4H35V5H34zM35,4H36V5H35zM37,4H38V5H37zM1,5H2V6H1zM3,5H4V6H3zM4,5H5V6H4zM5,5H6V6H5zM7,5H8V6H7zM11,5H12V6H11zM17,5H18V6H17zM20,5H21V6H20zM22,5H23V6H22zM25,5H26V6H25zM26,5H27V6H26zM28,5H29V6H28zM29,5H30V6H29zM31,5H32V6H31zM33,5H34V6H33zM34,5H35V6H34zM35,5H36V6H35zM37,5H38V6H37zM1,6H2V7H1zM7,6H8V7H7zM10,6H11V7H10zM12,6H13V7H12zM13,6H14V7H13zM16,6H17V7H16zM17,6H18V7H17zM18,6H19V7H18zM20,6H21V7H20zM21,6H22V7H21zM22,6H23V7H22zM25,6H26V7H25zM26,6H27V7H26zM31,6H32V7H31zM37,6H38V7H37zM1,7H2V8H1zM2,7H3V8H2zM3,7H4V8H3zM4,7H5V8H4zM5,7H6V8H5zM6,7H7V8H6zM7,7H8V8H7zM9,7H10V8H9zM11,7H12V8H11zM13,7H14V8H13zM15,7H16V8H15zM17,7H18V8H17zM19,7H20V8H19zM21,7H22V8H21zM23,7H24V8H23zM25,7H26V8H25zM27,7H28V8H27zM29,7H30V8H29zM31,7H32V8H31zM32,7H33V8H32zM33,7H34V8H33zM34,7H35V8H34zM35,7H36V8H35zM36,7H37V8H36zM37,7H38V8H37zM9,8H10V9H9zM13,8H14V9H13zM14,8H15V9H14zM15,8H16V9H15zM16,8H17V9H16zM17,8H18V9H17zM18,8H19V9H18zM19,8H20V9H19zM20,8H21V9H20zM21,8H22V9H21zM23,8H24V9H23zM25,8H26V9H25zM29,8H30V9H29zM1,9H2V10H1zM3,9H4V10H3zM4,9H5V10H4zM6,9H7V10H6zM7,9H8V10H7zM8,9H9V10H8zM10,9H11V10H10zM11,9H12V10H11zM12,9H13V10H12zM14,9H15V10H14zM15,9H16V10H15zM17,9H18V10H17zM18,9H19V10H18zM19,9H20V10H19zM20,9H21V10H20zM21,9H22V10H21zM22,9H23V10H22zM23,9H24V10H23zM24,9H25V10H24zM27,9H28V10H27zM31,9H32V10H31zM34,9H35V10H34zM36,9H37V10H36zM37,9H38V10H37zM2,10H3V11H2zM8,10H9V11H8zM10,10H11V11H10zM13,10H14V11H13zM14,10H15V11H14zM15,10H16V11H15zM16,10H17V11H16zM17,10H18V11H17zM19,10H20V11H19zM20,10H21V11H20zM21,10H22V11H21zM22,10H23V11H22zM24,10H25V11H24zM29,10H30V11H29zM35,10H36V11H35zM36,10H37V11H36zM4,11H5V12H4zM5,11H6V12H5zM6,11H7V12H6zM7,11H8V12H7zM9,11H10V12H9zM11,11H12V12H11zM13,11H14V12H13zM14,11H15V12H14zM15,11H16V12H15zM16,11H17V12H16zM18,11H19V12H18zM23,11H24V12H23zM24,11H25V12H24zM29,11H30V12H29zM32,11H33V12H32zM33,11H34V12H33zM34,11H35V12H34zM1,12H2V13H1zM2,12H3V13H2zM3,12H4V13H3zM4,12H5V13H4zM5,12H6V13H5zM9,12H10V13H9zM10,12H11V13H10zM11,12H12V13H11zM13,12H14V13H13zM15,12H16V13H15zM16,12H17V13H16zM19,12H20V13H19zM20,12H21V13H20zM21,12H22V13H21zM25,12H26V13H25zM26,12H27V13H26zM27,12H28V13H27zM28,12H29V13H28zM30,12H31V13H30zM31,12H32V13H31zM32,12H33V13H32zM34,12H35V13H34zM35,12H36V13H35zM1,13H2V14H1zM4,13H5V14H4zM5,13H6V14H5zM6,13H7V14H6zM7,13H8V14H7zM10,13H11V14H10zM12,13H13V14H12zM14,13H15V14H14zM15,13H16V14H15zM18,13H19V14H18zM21,13H22V14H21zM23,13H24V14H23zM24,13H25V14H24zM25,13H26V14H25zM26,13H27V14H26zM27,13H28V14H27zM29,13H30V14H29zM30,13H31V14H30zM31,13H32V14H31zM32,13H33V14H32zM33,13H34V14H33zM36,13H37V14H36zM37,13H38V14H37zM1,14H2V15H1zM2,14H3V15H2zM3,14H4V15H3zM10,14H11V15H10zM11,14H12V15H11zM12,14H13V15H12zM13,14H14V15H13zM16,14H17V15H16zM17,14H18V15H17zM18,14H19V15H18zM19,14H20V15H19zM20,14H21V15H20zM22,14H23V15H22zM23,14H24V15H23zM27,14H28V15H27zM28,14H29V15H28zM29,14H30V15H29zM31,14H32V15H31zM32,14H33V15H32zM33,14H34V15H33zM34,14H35V15H34zM37,14H38V15H37zM1,15H2V16H1zM2,15H3V16H2zM3,15H4V16H3zM4,15H5V16H4zM7,15H8V16H7zM8,15H9V16H8zM10,15H11V16H10zM12,15H13V16H12zM18,15H19V16H18zM19,15H20V16H19zM20,15H21V16H20zM21,15H22V16H21zM22,15H23V16H22zM23,15H24V16H23zM25,15H26V16H25zM26,15H27V16H26zM27,15H28V16H27zM31,15H32V16H31zM33,15H34V16H33zM35,15H36V16H35zM1,16H2V17H1zM2,16H3V17H2zM3,16H4V17H3zM4,16H5V17H4zM6,16H7V17H6zM9,16H10V17H9zM14,16H15V17H14zM16,16H17V17H16zM17,16H18V17H17zM20,16H21V17H20zM21,16H22V17H21zM22,16H23V17H22zM23,16H24V17H23zM27,16H28V17H27zM29,16H30V17H29zM30,16H31V17H30zM32,16H33V17H32zM33,16H34V17H33zM36,16H37V17H36zM37,16H38V17H37zM1,17H2V18H1zM2,17H3V18H2zM4,17H5V18H4zM5,17H6V18H5zM6,17H7V18H6zM7,17H8V18H7zM9,17H10V18H9zM10,17H11V18H10zM11,17H12V18H11zM13,17H14V18H13zM14,17H15V18H14zM15,17H16V18H15zM19,17H20V18H19zM20,17H21V18H20zM21,17H22V18H21zM23,17H24V18H23zM26,17H27V18H26zM28,17H29V18H28zM34,17H35V18H34zM35,17H36V18H35zM36,17H37V18H36zM37,17H38V18H37zM1,18H2V19H1zM2,18H3V19H2zM4,18H5V19H4zM6,18H7V19H6zM8,18H9V19H8zM10,18H11V19H10zM11,18H12V19H11zM12,18H13V19H12zM13,18H14V19H13zM15,18H16V19H15zM17,18H18V19H17zM19,18H20V19H19zM21,18H22V19H21zM23,18H24V19H23zM25,18H26V19H25zM26,18H27V19H26zM28,18H29V19H28zM31,18H32V19H31zM34,18H35V19H34zM35,18H36V19H35zM36,18H37V19H36zM37,18H38V19H37zM1,19H2V20H1zM5,19H6V20H5zM7,19H8V20H7zM10,19H11V20H10zM11,19H12V20H11zM12,19H13V20H12zM15,19H16V20H15zM16,19H17V20H16zM18,19H19V20H18zM19,19H20V20H19zM21,19H22V20H21zM26,19H27V20H26zM28,19H29V20H28zM30,19H31V20H30zM31,19H32V20H31zM32,19H33V20H32zM36,19H37V20H36zM37,19H38V20H37zM1,20H2V21H1zM2,20H3V21H2zM4,20H5V21H4zM9,20H10V21H9zM10,20H11V21H10zM11,20H12V21H11zM12,20H13V21H12zM16,20H17V21H16zM18,20H19V21H18zM20,20H21V21H20zM23,20H24V21H23zM27,20H28V21H27zM28,20H29V21H28zM29,20H30V21H29zM31,20H32V21H31zM34,20H35V21H34zM36,20H37V21H36zM1,21H2V22H1zM2,21H3V22H2zM3,21H4V22H3zM5,21H6V22H5zM7,21H8V22H7zM8,21H9V22H8zM10,21H11V22H10zM14,21H15V22H14zM18,21H19V22H18zM19,21H20V22H19zM20,21H21V22H20zM21,21H22V22H21zM22,21H23V22H22zM24,21H25V22H24zM27,21H28V22H27zM28,21H29V22H28zM29,21H30V22H29zM30,21H31V22H30zM32,21H33V22H32zM33,21H34V22H33zM37,21H38V22H37zM3,22H4V23H3zM4,22H5V23H4zM8,22H9V23H8zM9,22H10V23H9zM10,22H11V23H10zM12,22H13V23H12zM13,22H14V23H13zM14,22H15V23H14zM15,22H16V23H15zM17,22H18V23H17zM19,22H20V23H19zM20,22H21V23H20zM22,22H23V23H22zM23,22H24V23H23zM24,22H25V23H24zM26,22H27V23H26zM29,22H30V23H29zM30,22H31V23H30zM34,22H35V23H34zM36,22H37V23H36zM3,23H4V24H3zM4,23H5V24H4zM5,23H6V24H5zM6,23H7V24H6zM7,23H8V24H7zM8,23H9V24H8zM17,23H18V24H17zM18,23H19V24H18zM19,23H20V24H19zM22,23H23V24H22zM24,23H25V24H24zM25,23H26V24H25zM29,23H30V24H29zM32,23H33V24H32zM2,24H3V25H2zM5,24H6V25H5zM6,24H7V25H6zM8,24H9V25H8zM10,24H11V25H10zM11,24H12V25H11zM12,24H13V25H12zM14,24H15V25H14zM17,24H18V25H17zM19,24H20V25H19zM23,24H24V25H23zM24,24H25V25H24zM25,24H26V25H25zM26,24H27V25H26zM27,24H28V25H27zM29,24H30V25H29zM33,24H34V25H33zM34,24H35V25H34zM35,24H36V25H35zM37,24H38V25H37zM1,25H2V26H1zM2,25H3V26H2zM3,25H4V26H3zM4,25H5V26H4zM6,25H7V26H6zM7,25H8V26H7zM8,25H9V26H8zM9,25H10V26H9zM16,25H17V26H16zM17,25H18V26H17zM18,25H19V26H18zM21,25H22V26H21zM23,25H24V26H23zM24,25H25V26H24zM25,25H26V26H25zM26,25H27V26H26zM27,25H28V26H27zM30,25H31V26H30zM31,25H32V26H31zM33,25H34V26H33zM35,25H36V26H35zM37,25H38V26H37zM5,26H6V27H5zM13,26H14V27H13zM15,26H16V27H15zM16,26H17V27H16zM17,26H18V27H17zM18,26H19V27H18zM20,26H21V27H20zM23,26H24V27H23zM27,26H28V27H27zM28,26H29V27H28zM29,26H30V27H29zM30,26H31V27H30zM31,26H32V27H31zM32,26H33V27H32zM33,26H34V27H33zM34,26H35V27H34zM35,26H36V27H35zM36,26H37V27H36zM37,26H38V27H37zM2,27H3V28H2zM3,27H4V28H3zM4,27H5V28H4zM6,27H7V28H6zM7,27H8V28H7zM8,27H9V28H8zM9,27H10V28H9zM10,27H11V28H10zM12,27H13V28H12zM14,27H15V28H14zM15,27H16V28H15zM18,27H19V28H18zM20,27H21V28H20zM21,27H22V28H21zM25,27H26V28H25zM26,27H27V28H26zM27,27H28V28H27zM30,27H31V28H30zM32,27H33V28H32zM36,27H37V28H36zM1,28H2V29H1zM3,28H4V29H3zM4,28H5V29H4zM6,28H7V29H6zM8,28H9V29H8zM9,28H10V29H9zM13,28H14V29H13zM15,28H16V29H15zM16,28H17V29H16zM21,28H22V29H21zM22,28H23V29H22zM23,28H24V29H23zM27,28H28V29H27zM30,28H31V29H30zM32,28H33V29H32zM34,28H35V29H34zM36,28H37V29H36zM4,29H5V30H4zM7,29H8V30H7zM8,29H9V30H8zM10,29H11V30H10zM11,29H12V30H11zM12,29H13V30H12zM17,29H18V30H17zM19,29H20V30H19zM22,29H23V30H22zM23,29H24V30H23zM24,29H25V30H24zM26,29H27V30H26zM27,29H28V30H27zM28,29H29V30H28zM29,29H30V30H29zM30,29H31V30H30zM31,29H32V30H31zM32,29H33V30H32zM33,29H34V30H33zM35,29H36V30H35zM36,29H37V30H36zM9,30H10V31H9zM10,30H11V31H10zM12,30H13V31H12zM13,30H14V31H13zM16,30H17V31H16zM18,30H19V31H18zM21,30H22V31H21zM23,30H24V31H23zM24,30H25V31H24zM25,30H26V31H25zM26,30H27V31H26zM28,30H29V31H28zM29,30H30V31H29zM33,30H34V31H33zM35,30H36V31H35zM36,30H37V31H36zM37,30H38V31H37zM1,31H2V32H1zM2,31H3V32H2zM3,31H4V32H3zM4,31H5V32H4zM5,31H6V32H5zM6,31H7V32H6zM7,31H8V32H7zM9,31H10V32H9zM11,31H12V32H11zM13,31H14V32H13zM16,31H17V32H16zM17,31H18V32H17zM19,31H20V32H19zM26,31H27V32H26zM29,31H30V32H29zM31,31H32V32H31zM33,31H34V32H33zM35,31H36V32H35zM36,31H37V32H36zM37,31H38V32H37zM1,32H2V33H1zM7,32H8V33H7zM9,32H10V33H9zM12,32H13V33H12zM13,32H14V33H13zM16,32H17V33H16zM17,32H18V33H17zM18,32H19V33H18zM19,32H20V33H19zM27,32H28V33H27zM28,32H29V33H28zM29,32H30V33H29zM33,32H34V33H33zM1,33H2V34H1zM3,33H4V34H3zM4,33H5V34H4zM5,33H6V34H5zM7,33H8V34H7zM10,33H11V34H10zM12,33H13V34H12zM15,33H16V34H15zM16,33H17V34H16zM17,33H18V34H17zM18,33H19V34H18zM19,33H20V34H19zM20,33H21V34H20zM21,33H22V34H21zM22,33H23V34H22zM27,33H28V34H27zM29,33H30V34H29zM30,33H31V34H30zM31,33H32V34H31zM32,33H33V34H32zM33,33H34V34H33zM34,33H35V34H34zM36,33H37V34H36zM1,34H2V35H1zM3,34H4V35H3zM4,34H5V35H4zM5,34H6V35H5zM7,34H8V35H7zM9,34H10V35H9zM12,34H13V35H12zM17,34H18V35H17zM18,34H19V35H18zM20,34H21V35H20zM21,34H22V35H21zM24,34H25V35H24zM26,34H27V35H26zM27,34H28V35H27zM28,34H29V35H28zM29,34H30V35H29zM31,34H32V35H31zM33,34H34V35H33zM34,34H35V35H34zM35,34H36V35H35zM36,34H37V35H36zM37,34H38V35H37zM1,35H2V36H1zM3,35H4V36H3zM4,35H5V36H4zM5,35H6V36H5zM7,35H8V36H7zM9,35H10V36H9zM12,35H13V36H12zM18,35H19V36H18zM23,35H24V36H23zM24,35H25V36H24zM26,35H27V36H26zM28,35H29V36H28zM29,35H30V36H29zM30,35H31V36H30zM31,35H32V36H31zM33,35H34V36H33zM34,35H35V36H34zM35,35H36V36H35zM1,36H2V37H1zM7,36H8V37H7zM13,36H14V37H13zM15,36H16V37H15zM21,36H22V37H21zM23,36H24V37H23zM24,36H25V37H24zM26,36H27V37H26zM30,36H31V37H30zM32,36H33V37H32zM33,36H34V37H33zM34,36H35V37H34zM35,36H36V37H35zM1,37H2V38H1zM2,37H3V38H2zM3,37H4V38H3zM4,37H5V38H4zM5,37H6V38H5zM6,37H7V38H6zM7,37H8V38H7zM9,37H10V38H9zM11,37H12V38H11zM16,37H17V38H16zM17,37H18V38H17zM20,37H21V38H20zM21,37H22V38H21zM23,37H24V38H23zM25,37H26V38H25zM26,37H27V38H26zM27,37H28V38H27zM28,37H29V38H28zM30,37H31V38H30zM31,37H32V38H31zM33,37H34V38H33zM34,37H35V38H34zM35,37H36V38H35zM36,37H37V38H36zM37,37H38V38H37z" id="qr-path" fill="#1F1B18" fill-opacity="1" fill-rule="nonzero" stroke="none"/></svg>