<svg xmlns="http://www.w3.org/2000/svg" width="640" height="220" viewBox="0 0 640 220" font-family="Inter, 'DejaVu Sans', sans-serif"><rect width="640" height="220" fill="#FFFFFF"/><text x="14" y="22" font-size="12" font-weight="700" fill="#8E3A1E">ANATOMIE D'UNE MESURE À 4/4</text><line x1="70" y1="62" x2="600" y2="62" stroke="#4E463E" stroke-width="1.1"/><line x1="70" y1="73" x2="600" y2="73" stroke="#4E463E" stroke-width="1.1"/><line x1="70" y1="84" x2="600" y2="84" stroke="#4E463E" stroke-width="1.1"/><line x1="70" y1="95" x2="600" y2="95" stroke="#4E463E" stroke-width="1.1"/><line x1="70" y1="106" x2="600" y2="106" stroke="#4E463E" stroke-width="1.1"/><text x="34" y="108" font-family="'EB Garamond', Georgia, serif" font-size="62" fill="#1F1B18">&#119070;</text><text x="106" y="81" font-family="'EB Garamond', Georgia, serif" font-size="25" font-weight="700" fill="#B94F2C">4</text><text x="106" y="105" font-family="'EB Garamond', Georgia, serif" font-size="25" font-weight="700" fill="#B94F2C">4</text><line x1="140" y1="62" x2="140" y2="106" stroke="#1F1B18" stroke-width="2"/><line x1="340" y1="62" x2="340" y2="106" stroke="#1F1B18" stroke-width="2"/><line x1="540" y1="62" x2="540" y2="106" stroke="#1F1B18" stroke-width="2"/><line x1="598" y1="62" x2="598" y2="106" stroke="#1F1B18" stroke-width="2"/><line x1="593" y1="62" x2="593" y2="106" stroke="#1F1B18" stroke-width="5"/><ellipse cx="168.0" cy="89.5" rx="5.9" ry="4.4" transform="rotate(-18 168.0 89.5)" fill="#1F1B18" stroke="#1F1B18" stroke-width="1.6"/><line x1="173.2" y1="88.7" x2="173.2" y2="61.6" stroke="#1F1B18" stroke-width="1.6"/><text x="168" y="132" text-anchor="middle" font-family="'JetBrains Mono', monospace" font-size="12" font-weight="700" fill="#8B8075">1</text><ellipse cx="211.0" cy="89.5" rx="5.9" ry="4.4" transform="rotate(-18 211.0 89.5)" fill="#1F1B18" stroke="#1F1B18" stroke-width="1.6"/><line x1="216.2" y1="88.7" x2="216.2" y2="61.6" stroke="#1F1B18" stroke-width="1.6"/><text x="211" y="132" text-anchor="middle" font-family="'JetBrains Mono', monospace" font-size="12" font-weight="700" fill="#8B8075">2</text><ellipse cx="254.0" cy="89.5" rx="5.9" ry="4.4" transform="rotate(-18 254.0 89.5)" fill="#1F1B18" stroke="#1F1B18" stroke-width="1.6"/><line x1="259.2" y1="88.7" x2="259.2" y2="61.6" stroke="#1F1B18" stroke-width="1.6"/><text x="254" y="132" text-anchor="middle" font-family="'JetBrains Mono', monospace" font-size="12" font-weight="700" fill="#8B8075">3</text><ellipse cx="297.0" cy="89.5" rx="5.9" ry="4.4" transform="rotate(-18 297.0 89.5)" fill="#1F1B18" stroke="#1F1B18" stroke-width="1.6"/><line x1="302.2" y1="88.7" x2="302.2" y2="61.6" stroke="#1F1B18" stroke-width="1.6"/><text x="297" y="132" text-anchor="middle" font-family="'JetBrains Mono', monospace" font-size="12" font-weight="700" fill="#8B8075">4</text><ellipse cx="368.0" cy="89.5" rx="5.9" ry="4.4" transform="rotate(-18 368.0 89.5)" fill="#1F1B18" stroke="#1F1B18" stroke-width="1.6"/><line x1="373.2" y1="88.7" x2="373.2" y2="61.6" stroke="#1F1B18" stroke-width="1.6"/><text x="368" y="132" text-anchor="middle" font-family="'JetBrains Mono', monospace" font-size="12" font-weight="700" fill="#8B8075">1</text><ellipse cx="411.0" cy="89.5" rx="5.9" ry="4.4" transform="rotate(-18 411.0 89.5)" fill="#1F1B18" stroke="#1F1B18" stroke-width="1.6"/><line x1="416.2" y1="88.7" x2="416.2" y2="61.6" stroke="#1F1B18" stroke-width="1.6"/><text x="411" y="132" text-anchor="middle" font-family="'JetBrains Mono', monospace" font-size="12" font-weight="700" fill="#8B8075">2</text><ellipse cx="454.0" cy="89.5" rx="5.9" ry="4.4" transform="rotate(-18 454.0 89.5)" fill="#1F1B18" stroke="#1F1B18" stroke-width="1.6"/><line x1="459.2" y1="88.7" x2="459.2" y2="61.6" stroke="#1F1B18" stroke-width="1.6"/><text x="454" y="132" text-anchor="middle" font-family="'JetBrains Mono', monospace" font-size="12" font-weight="700" fill="#8B8075">3</text><ellipse cx="497.0" cy="89.5" rx="5.9" ry="4.4" transform="rotate(-18 497.0 89.5)" fill="#1F1B18" stroke="#1F1B18" stroke-width="1.6"/><line x1="502.2" y1="88.7" x2="502.2" y2="61.6" stroke="#1F1B18" stroke-width="1.6"/><text x="497" y="132" text-anchor="middle" font-family="'JetBrains Mono', monospace" font-size="12" font-weight="700" fill="#8B8075">4</text><path d="M112 92 L112 148" stroke="#1C5057" stroke-width="1" stroke-dasharray="2.5 2.5" fill="none"/><circle cx="112" cy="92" r="2.4" fill="#1C5057"/><text x="112" y="148" text-anchor="middle" font-size="12" font-weight="700" fill="#1F1B18">Chiffrage</text><text x="112" y="161" text-anchor="middle" font-size="12" fill="#8B8075">4 temps par mesure,</text><text x="112" y="174" text-anchor="middle" font-size="12" fill="#8B8075">la noire vaut 1 temps</text><path d="M340 58 L340 40" stroke="#1C5057" stroke-width="1" stroke-dasharray="2.5 2.5" fill="none"/><circle cx="340" cy="58" r="2.4" fill="#1C5057"/><text x="340" y="40" text-anchor="middle" font-size="12" font-weight="700" fill="#1F1B18">Barre de mesure</text><path d="M594 112 L550 150" stroke="#1C5057" stroke-width="1" stroke-dasharray="2.5 2.5" fill="none"/><circle cx="594" cy="112" r="2.4" fill="#1C5057"/><text x="550" y="150" text-anchor="middle" font-size="12" font-weight="700" fill="#1F1B18">Double barre</text><text x="550" y="163" text-anchor="middle" font-size="12" fill="#8B8075">c'est la fin</text><path d="M168 96 L230 176" stroke="#1C5057" stroke-width="1" stroke-dasharray="2.5 2.5" fill="none"/><circle cx="168" cy="96" r="2.4" fill="#1C5057"/><text x="230" y="176" text-anchor="middle" font-size="12" font-weight="700" fill="#1F1B18">Une mesure = 4 noires</text></svg>